<mxfile modified="2022-09-07T16:59:00.232Z" host="app.diagrams.net" agent="5.0 (Windows NT 10.0; Win64; x64) AppleWebKit/537.36 (KHTML, like Gecko) Chrome/105.0.0.0 Safari/537.36" etag="04rpMkdA146ImC_qj8W5" version="20.2.8" type="github">
  <diagram id="Ht1M8jgEwFfnCIfOTk4-" name="Page-1">
    <mxGraphModel dx="1422" dy="762" grid="1" gridSize="10" guides="1" tooltips="1" connect="1" arrows="1" fold="1" page="1" pageScale="1" pageWidth="1169" pageHeight="827" math="0" shadow="0">
      <root>
        <mxCell id="0" />
        <mxCell id="1" parent="0" />
        <mxCell id="Gq2ocJzow4UtyP_4--Kb-11" value="Feds VPC" style="points=[[0,0],[0.25,0],[0.5,0],[0.75,0],[1,0],[1,0.25],[1,0.5],[1,0.75],[1,1],[0.75,1],[0.5,1],[0.25,1],[0,1],[0,0.75],[0,0.5],[0,0.25]];outlineConnect=0;gradientColor=none;html=1;whiteSpace=wrap;fontSize=12;fontStyle=0;container=1;pointerEvents=0;collapsible=0;recursiveResize=0;shape=mxgraph.aws4.group;grIcon=mxgraph.aws4.group_vpc;strokeColor=#248814;fillColor=none;verticalAlign=top;align=left;spacingLeft=30;fontColor=#AAB7B8;dashed=0;" parent="1" vertex="1">
          <mxGeometry x="490" y="20" width="280" height="210" as="geometry" />
        </mxCell>
        <mxCell id="Gq2ocJzow4UtyP_4--Kb-2" value="Gitlab" style="shape=image;html=1;verticalAlign=top;verticalLabelPosition=bottom;labelBackgroundColor=#ffffff;imageAspect=0;aspect=fixed;image=https://cdn4.iconfinder.com/data/icons/socialcones/508/Gitlab-128.png" parent="Gq2ocJzow4UtyP_4--Kb-11" vertex="1">
          <mxGeometry x="60" y="30" width="50" height="50" as="geometry" />
        </mxCell>
        <mxCell id="LXsiCXKtM6dPdB3KYGL0-7" style="edgeStyle=orthogonalEdgeStyle;rounded=0;orthogonalLoop=1;jettySize=auto;html=1;" edge="1" parent="Gq2ocJzow4UtyP_4--Kb-11" source="LXsiCXKtM6dPdB3KYGL0-5" target="Gq2ocJzow4UtyP_4--Kb-2">
          <mxGeometry relative="1" as="geometry">
            <Array as="points">
              <mxPoint x="30" y="45" />
            </Array>
          </mxGeometry>
        </mxCell>
        <mxCell id="LXsiCXKtM6dPdB3KYGL0-20" value="" style="group" vertex="1" connectable="0" parent="Gq2ocJzow4UtyP_4--Kb-11">
          <mxGeometry x="160" y="30" width="100" height="80" as="geometry" />
        </mxCell>
        <mxCell id="LXsiCXKtM6dPdB3KYGL0-8" value="" style="sketch=0;html=1;aspect=fixed;strokeColor=none;shadow=0;align=center;verticalAlign=top;fillColor=#3B8DF1;shape=mxgraph.gcp2.repository_primary" vertex="1" parent="LXsiCXKtM6dPdB3KYGL0-20">
          <mxGeometry x="30" width="40" height="40" as="geometry" />
        </mxCell>
        <mxCell id="LXsiCXKtM6dPdB3KYGL0-18" value="Ucato-Radar-&lt;br&gt;k8s-temnplate" style="text;html=1;align=center;verticalAlign=middle;resizable=0;points=[];autosize=1;strokeColor=none;fillColor=none;" vertex="1" parent="LXsiCXKtM6dPdB3KYGL0-20">
          <mxGeometry y="40" width="100" height="40" as="geometry" />
        </mxCell>
        <mxCell id="LXsiCXKtM6dPdB3KYGL0-22" style="edgeStyle=orthogonalEdgeStyle;rounded=0;orthogonalLoop=1;jettySize=auto;html=1;entryX=1;entryY=0.25;entryDx=0;entryDy=0;" edge="1" parent="Gq2ocJzow4UtyP_4--Kb-11" source="LXsiCXKtM6dPdB3KYGL0-8" target="Gq2ocJzow4UtyP_4--Kb-2">
          <mxGeometry relative="1" as="geometry">
            <Array as="points">
              <mxPoint x="150" y="43" />
            </Array>
          </mxGeometry>
        </mxCell>
        <mxCell id="LXsiCXKtM6dPdB3KYGL0-21" value="" style="group" vertex="1" connectable="0" parent="Gq2ocJzow4UtyP_4--Kb-11">
          <mxGeometry x="150" y="120" width="110" height="80" as="geometry" />
        </mxCell>
        <mxCell id="LXsiCXKtM6dPdB3KYGL0-5" value="" style="sketch=0;html=1;aspect=fixed;strokeColor=none;shadow=0;align=center;verticalAlign=top;fillColor=#3B8DF1;shape=mxgraph.gcp2.repository_primary" vertex="1" parent="LXsiCXKtM6dPdB3KYGL0-21">
          <mxGeometry x="30" width="40" height="40" as="geometry" />
        </mxCell>
        <mxCell id="LXsiCXKtM6dPdB3KYGL0-19" value="Microservice &lt;br&gt;Risk Assessment" style="text;html=1;align=center;verticalAlign=middle;resizable=0;points=[];autosize=1;strokeColor=none;fillColor=none;" vertex="1" parent="LXsiCXKtM6dPdB3KYGL0-21">
          <mxGeometry y="40" width="110" height="40" as="geometry" />
        </mxCell>
        <mxCell id="Gq2ocJzow4UtyP_4--Kb-15" value="ISRMU-Dev VPC" style="points=[[0,0],[0.25,0],[0.5,0],[0.75,0],[1,0],[1,0.25],[1,0.5],[1,0.75],[1,1],[0.75,1],[0.5,1],[0.25,1],[0,1],[0,0.75],[0,0.5],[0,0.25]];outlineConnect=0;gradientColor=none;html=1;whiteSpace=wrap;fontSize=12;fontStyle=0;container=1;pointerEvents=0;collapsible=0;recursiveResize=0;shape=mxgraph.aws4.group;grIcon=mxgraph.aws4.group_vpc;strokeColor=#248814;fillColor=none;verticalAlign=top;align=left;spacingLeft=30;fontColor=#AAB7B8;dashed=0;" parent="1" vertex="1">
          <mxGeometry x="40" y="310" width="160" height="150" as="geometry" />
        </mxCell>
        <mxCell id="Gq2ocJzow4UtyP_4--Kb-3" value="Cloud Formation" style="sketch=0;points=[[0,0,0],[0.25,0,0],[0.5,0,0],[0.75,0,0],[1,0,0],[0,1,0],[0.25,1,0],[0.5,1,0],[0.75,1,0],[1,1,0],[0,0.25,0],[0,0.5,0],[0,0.75,0],[1,0.25,0],[1,0.5,0],[1,0.75,0]];points=[[0,0,0],[0.25,0,0],[0.5,0,0],[0.75,0,0],[1,0,0],[0,1,0],[0.25,1,0],[0.5,1,0],[0.75,1,0],[1,1,0],[0,0.25,0],[0,0.5,0],[0,0.75,0],[1,0.25,0],[1,0.5,0],[1,0.75,0]];outlineConnect=0;fontColor=#232F3E;gradientColor=#F34482;gradientDirection=north;fillColor=#BC1356;strokeColor=#ffffff;dashed=0;verticalLabelPosition=bottom;verticalAlign=top;align=center;html=1;fontSize=12;fontStyle=0;aspect=fixed;shape=mxgraph.aws4.resourceIcon;resIcon=mxgraph.aws4.cloudformation;" parent="Gq2ocJzow4UtyP_4--Kb-15" vertex="1">
          <mxGeometry x="56.25" y="46.25" width="37.5" height="37.5" as="geometry" />
        </mxCell>
        <mxCell id="Gq2ocJzow4UtyP_4--Kb-18" style="edgeStyle=orthogonalEdgeStyle;rounded=0;orthogonalLoop=1;jettySize=auto;html=1;startArrow=open;startFill=0;endArrow=open;endFill=0;strokeWidth=2;strokeColor=#808080;exitX=1;exitY=0.5;exitDx=0;exitDy=0;" parent="1" source="Gq2ocJzow4UtyP_4--Kb-15" edge="1" target="Gq2ocJzow4UtyP_4--Kb-10">
          <mxGeometry relative="1" as="geometry">
            <Array as="points" />
            <mxPoint x="165" y="385.0000000000001" as="sourcePoint" />
            <mxPoint x="330" y="385" as="targetPoint" />
          </mxGeometry>
        </mxCell>
        <mxCell id="Gq2ocJzow4UtyP_4--Kb-19" style="edgeStyle=orthogonalEdgeStyle;rounded=0;orthogonalLoop=1;jettySize=auto;html=1;startArrow=open;startFill=0;endArrow=open;endFill=0;strokeWidth=2;" parent="1" source="Gq2ocJzow4UtyP_4--Kb-11" target="Gq2ocJzow4UtyP_4--Kb-15" edge="1">
          <mxGeometry relative="1" as="geometry">
            <Array as="points">
              <mxPoint x="120" y="270" />
              <mxPoint x="120" y="270" />
            </Array>
            <mxPoint x="90" y="250.0000000000001" as="sourcePoint" />
            <mxPoint x="265" y="250.0344827586207" as="targetPoint" />
          </mxGeometry>
        </mxCell>
        <mxCell id="Gq2ocJzow4UtyP_4--Kb-7" value="" style="group" parent="1" vertex="1" connectable="0">
          <mxGeometry x="520" y="310" width="220" height="210" as="geometry" />
        </mxCell>
        <mxCell id="Gq2ocJzow4UtyP_4--Kb-4" value="Security Group" style="rounded=1;arcSize=10;dashed=1;strokeColor=#ff0000;fillColor=none;gradientColor=none;dashPattern=8 4;strokeWidth=2;verticalAlign=top;" parent="Gq2ocJzow4UtyP_4--Kb-7" vertex="1">
          <mxGeometry width="140" height="140" as="geometry" />
        </mxCell>
        <mxCell id="Gq2ocJzow4UtyP_4--Kb-5" value="EC2Bastion Host" style="points=[[0,0],[0.25,0],[0.5,0],[0.75,0],[1,0],[1,0.25],[1,0.5],[1,0.75],[1,1],[0.75,1],[0.5,1],[0.25,1],[0,1],[0,0.75],[0,0.5],[0,0.25]];outlineConnect=0;gradientColor=none;html=1;whiteSpace=wrap;fontSize=12;fontStyle=0;container=1;pointerEvents=0;collapsible=0;recursiveResize=0;shape=mxgraph.aws4.group;grIcon=mxgraph.aws4.group_ec2_instance_contents;strokeColor=#D86613;fillColor=none;verticalAlign=top;align=left;spacingLeft=30;fontColor=#D86613;dashed=0;" parent="Gq2ocJzow4UtyP_4--Kb-7" vertex="1">
          <mxGeometry x="15" y="25" width="110" height="90" as="geometry" />
        </mxCell>
        <mxCell id="Gq2ocJzow4UtyP_4--Kb-6" value="Availability zone" style="sketch=0;outlineConnect=0;gradientColor=none;html=1;whiteSpace=wrap;fontSize=12;fontStyle=0;shape=mxgraph.aws4.group;grIcon=mxgraph.aws4.group_availability_zone;strokeColor=#545B64;fillColor=none;verticalAlign=top;align=left;spacingLeft=30;fontColor=#545B64;dashed=1;" parent="Gq2ocJzow4UtyP_4--Kb-7" vertex="1">
          <mxGeometry x="-35" y="-37.5" width="210" height="215" as="geometry" />
        </mxCell>
        <mxCell id="Gq2ocJzow4UtyP_4--Kb-8" value="RADAR-GPROD-VPC" style="points=[[0,0],[0.25,0],[0.5,0],[0.75,0],[1,0],[1,0.25],[1,0.5],[1,0.75],[1,1],[0.75,1],[0.5,1],[0.25,1],[0,1],[0,0.75],[0,0.5],[0,0.25]];outlineConnect=0;gradientColor=none;html=1;whiteSpace=wrap;fontSize=12;fontStyle=0;container=1;pointerEvents=0;collapsible=0;recursiveResize=0;shape=mxgraph.aws4.group;grIcon=mxgraph.aws4.group_vpc;strokeColor=#248814;fillColor=none;verticalAlign=top;align=left;spacingLeft=30;fontColor=#AAB7B8;dashed=0;" parent="Gq2ocJzow4UtyP_4--Kb-7" vertex="1">
          <mxGeometry x="-70" y="-60" width="290" height="260" as="geometry" />
        </mxCell>
        <mxCell id="Gq2ocJzow4UtyP_4--Kb-10" value="NACL&lt;br&gt;" style="sketch=0;outlineConnect=0;fontColor=#232F3E;gradientColor=none;fillColor=#4D27AA;strokeColor=none;dashed=0;verticalLabelPosition=bottom;verticalAlign=top;align=center;html=1;fontSize=12;fontStyle=0;aspect=fixed;pointerEvents=1;shape=mxgraph.aws4.network_access_control_list;" parent="Gq2ocJzow4UtyP_4--Kb-8" vertex="1">
          <mxGeometry y="120" width="30" height="30" as="geometry" />
        </mxCell>
        <mxCell id="LXsiCXKtM6dPdB3KYGL0-3" value="Live K8&#39;s Check" style="whiteSpace=wrap;html=1;" vertex="1" parent="1">
          <mxGeometry x="270" y="320" width="120" height="60" as="geometry" />
        </mxCell>
        <mxCell id="LXsiCXKtM6dPdB3KYGL0-23" value="Gitlab-runner deployment" style="text;html=1;align=center;verticalAlign=middle;resizable=0;points=[];autosize=1;strokeColor=none;fillColor=none;" vertex="1" parent="1">
          <mxGeometry x="150" y="85" width="160" height="30" as="geometry" />
        </mxCell>
      </root>
    </mxGraphModel>
  </diagram>
</mxfile>
